<mxfile host="app.diagrams.net" modified="2023-09-22T00:26:18.228Z" agent="Mozilla/5.0 (Windows NT 10.0; Win64; x64) AppleWebKit/537.36 (KHTML, like Gecko) Chrome/116.0.0.0 Safari/537.36" version="21.8.0" etag="NoJX7o0O_6uxQpp3DWvt" type="github">
  <diagram name="Page-1" id="dctfWg3JQA2ZFK_alG4q">
    <mxGraphModel>
      <root>
        <mxCell id="0" />
        <mxCell id="1" parent="0" />
      </root>
    </mxGraphModel>
  </diagram>
</mxfile>
